<?xml version="1.0" standalone="no"?>
<!DOCTYPE svg PUBLIC "-//W3C//DTD SVG 20010904//EN"
 "http://www.w3.org/TR/2001/REC-SVG-20010904/DTD/svg10.dtd">
<svg version="1.0" xmlns="http://www.w3.org/2000/svg"
 width="250.000000pt" height="250.000000pt" viewBox="0 0 250.000000 250.000000"
 preserveAspectRatio="xMidYMid meet">
<metadata>
Created by potrace 1.14, written by Peter Selinger 2001-2017
</metadata>
<g transform="translate(0.000000,250.000000) scale(0.100000,-0.100000)"
fill="#000000" stroke="none">
<path d="M1985 2491 c-36 -9 -109 -46 -150 -75 -16 -11 -33 -21 -37 -21 -3 0
-10 -3 -14 -7 -10 -10 -26 -10 -43 1 -13 8 -13 12 -1 26 13 15 11 17 -10 13
-17 -2 -26 -10 -28 -25 -2 -13 -9 -23 -16 -23 -17 0 -46 -32 -46 -51 0 -10
-15 -15 -51 -16 -28 -1 -62 -9 -76 -18 -22 -15 -25 -22 -20 -59 5 -36 3 -43
-16 -51 -14 -6 -22 -19 -22 -34 0 -13 -7 -27 -15 -30 -28 -11 -60 -45 -60 -63
0 -10 -5 -17 -11 -16 -14 4 -31 -39 -19 -47 5 -3 11 -1 15 5 3 5 13 10 21 10
16 0 74 49 74 62 0 12 45 53 73 65 28 13 44 51 33 80 -4 10 -4 14 0 11 4 -4
16 -2 28 4 11 7 33 11 47 9 17 -1 32 5 40 16 8 10 23 18 34 18 13 0 21 8 23
23 3 21 22 32 22 12 0 -5 11 -10 24 -10 29 0 42 -26 18 -39 -9 -5 -37 -12 -61
-16 -25 -4 -54 -17 -67 -30 -12 -12 -29 -25 -37 -28 -8 -3 -17 -18 -20 -34 -3
-15 -15 -39 -26 -52 -22 -26 -27 -56 -11 -66 22 -14 8 -23 -20 -13 -39 13 -92
3 -115 -22 -12 -14 -16 -32 -13 -67 2 -34 -1 -47 -9 -46 -7 2 -12 -1 -10 -6 2
-10 -2 -11 -33 -11 -11 0 -20 5 -20 10 0 6 7 10 15 10 8 0 15 4 15 10 0 5 -3
9 -7 9 -21 -3 -34 4 -76 41 -45 41 -67 81 -61 110 2 8 7 31 11 52 6 26 22 48
56 78 26 23 47 46 47 51 0 14 -43 10 -64 -6 -26 -19 -66 -19 -66 0 0 8 -12 25
-26 39 -22 20 -37 24 -88 24 -33 0 -66 -4 -73 -9 -6 -6 -14 -33 -18 -60 -8
-56 -23 -69 -60 -49 -36 19 -45 10 -29 -28 10 -24 25 -38 54 -49 26 -10 40
-22 40 -34 0 -10 5 -21 10 -24 6 -3 10 -14 10 -24 0 -23 -51 -101 -66 -101 -7
0 -23 -12 -36 -27 -12 -16 -40 -34 -61 -41 -41 -15 -59 -10 -39 10 18 18 15
43 -7 62 -11 10 -22 29 -26 43 -12 47 -71 90 -148 108 -86 20 -123 38 -130 66
-5 19 -4 20 12 5 14 -12 24 -14 42 -7 17 6 28 5 37 -6 19 -20 54 -12 68 15 10
20 13 21 24 7 7 -8 21 -15 31 -15 21 0 54 44 44 60 -3 5 1 10 9 10 9 0 16 -4
16 -10 0 -5 11 -10 25 -10 25 0 32 10 49 64 6 17 8 16 25 -5 16 -20 23 -22 38
-13 10 6 19 25 21 43 3 25 7 31 21 26 10 -3 30 1 45 9 26 13 27 14 7 21 -11 3
-25 4 -30 0 -5 -3 -12 -1 -16 5 -9 15 -42 -6 -51 -32 -6 -19 -7 -19 -16 -5
-13 25 -44 21 -66 -8 -24 -30 -28 -31 -35 -4 -7 28 -60 23 -65 -6 -2 -11 -11
-28 -19 -37 -9 -10 -13 -27 -10 -39 5 -20 5 -20 -14 -3 -16 14 -24 16 -38 7
-16 -10 -20 -8 -25 18 -9 44 -34 48 -66 11 -25 -31 -26 -31 -35 -9 -8 16 -19
22 -46 23 -19 1 -47 9 -62 19 -22 14 -40 17 -86 12 -90 -8 -144 -42 -231 -146
-24 -30 -61 -66 -82 -81 l-37 -27 21 -19 c11 -11 45 -69 73 -130 44 -93 59
-115 91 -135 47 -28 134 -31 162 -5 24 21 32 20 32 -2 0 -46 68 -66 139 -41
17 6 39 8 49 4 13 -6 8 -10 -23 -19 -64 -19 -73 -81 -21 -143 17 -20 22 -34
16 -44 -12 -17 -3 -48 20 -74 10 -11 21 -37 24 -58 4 -21 14 -41 22 -44 7 -3
14 -18 14 -34 0 -31 23 -49 64 -49 49 0 127 22 145 41 17 18 17 17 13 -48 -2
-38 -6 -105 -7 -150 -2 -45 -5 -85 -8 -90 -2 -4 -14 -53 -27 -108 -12 -55 -28
-114 -36 -131 -7 -17 -20 -71 -29 -120 -27 -155 -67 -408 -69 -447 -2 -24 -12
-48 -28 -65 -31 -33 -45 -82 -26 -93 7 -5 33 -9 56 -9 37 0 50 6 78 34 19 19
38 35 42 35 21 2 42 35 43 68 1 49 23 163 86 433 8 36 18 84 22 106 8 43 129
292 183 377 l31 48 35 -33 c35 -34 58 -79 94 -183 12 -33 36 -91 55 -128 21
-43 32 -76 28 -88 -4 -11 -1 -27 7 -36 7 -9 13 -21 13 -27 1 -19 40 -234 69
-376 17 -84 18 -117 5 -142 -9 -17 -7 -24 17 -44 16 -13 35 -23 42 -24 7 0 23
-7 36 -15 12 -8 43 -18 69 -21 78 -11 99 29 52 98 -14 20 -22 43 -19 52 3 8
-1 30 -9 48 -26 59 -32 87 -51 248 -15 123 -33 221 -57 307 -16 56 -31 121
-35 145 -3 24 -17 78 -31 121 -21 64 -23 84 -14 103 16 37 -15 220 -42 245
-14 13 -25 16 -37 9 -13 -7 -21 -5 -30 4 -14 18 -22 134 -9 142 5 3 7 43 5 90
-4 83 -4 84 17 73 39 -20 87 -72 87 -95 0 -37 9 -50 71 -104 47 -41 72 -55
117 -65 31 -7 66 -13 77 -13 25 1 65 36 65 59 0 9 7 30 15 45 8 16 15 38 15
48 0 11 9 30 21 42 22 23 26 47 15 82 -5 14 -3 22 3 22 17 0 51 62 51 92 0 29
-31 58 -63 58 -11 0 -17 5 -14 13 5 13 7 13 85 -5 45 -10 54 -10 68 4 15 15
20 14 61 -4 29 -13 54 -17 73 -13 43 9 110 74 154 149 39 67 164 206 185 206
29 0 5 21 -46 40 -47 17 -74 37 -138 103 -114 118 -210 162 -300 138z"/>
</g>
</svg>
